<svg width="98" height="14" viewBox="0 0 98 14" fill="none" xmlns="http://www.w3.org/2000/svg">
<path d="M13.2465 3.19381H15.8454V4.55143H15.8842C16.2462 4.03424 16.6794 3.63342 17.1836 3.34897C17.7008 3.06451 18.2891 2.92228 18.9485 2.92228C19.5821 2.92228 20.1575 3.05158 20.6747 3.31018C21.2048 3.55584 21.6056 3.98252 21.8771 4.59022C22.1745 4.15061 22.5753 3.76272 23.0796 3.42655C23.5968 3.09037 24.2045 2.92228 24.9027 2.92228C25.4328 2.92228 25.9242 2.98693 26.3767 3.11623C26.8292 3.24553 27.2171 3.4524 27.5404 3.73686C27.8636 4.02131 28.1158 4.39628 28.2968 4.86175C28.4778 5.31429 28.5683 5.86381 28.5683 6.51029V13.2208H25.8143V7.53821C25.8143 7.20204 25.8013 6.88526 25.7755 6.58787C25.7496 6.29049 25.6785 6.03189 25.5621 5.81209C25.4458 5.59228 25.2712 5.41773 25.0385 5.28843C24.8187 5.15913 24.5148 5.09448 24.1269 5.09448C23.739 5.09448 23.4222 5.17206 23.1766 5.32722C22.9438 5.46945 22.7564 5.66339 22.6141 5.90906C22.4848 6.1418 22.3943 6.41332 22.3426 6.72364C22.3038 7.02102 22.2844 7.32487 22.2844 7.63518V13.2208H19.5304V7.59639C19.5304 7.31194 19.5239 7.02102 19.511 6.72364C19.4981 6.42625 19.4399 6.15473 19.3364 5.90906C19.2459 5.66339 19.0843 5.46945 18.8516 5.32722C18.6318 5.17206 18.3021 5.09448 17.8624 5.09448C17.7202 5.09448 17.5457 5.12681 17.3388 5.19146C17.1319 5.24318 16.925 5.35308 16.7182 5.52117C16.5242 5.67632 16.3561 5.90906 16.2139 6.21937C16.0717 6.51676 16.0006 6.91112 16.0006 7.40245V13.2208H13.2465V3.19381Z" fill="#E89313"/>
<path d="M36.525 7.13092C36.3957 6.43271 36.1629 5.9026 35.8267 5.54056C35.5035 5.17853 35.0057 4.99751 34.3334 4.99751C33.8937 4.99751 33.5252 5.07509 33.2279 5.23025C32.9434 5.37247 32.7107 5.55349 32.5297 5.7733C32.3616 5.9931 32.2387 6.22584 32.1612 6.47151C32.0965 6.71717 32.0577 6.93698 32.0448 7.13092H36.525ZM32.0448 8.87644C32.0836 9.75567 32.3098 10.4022 32.7236 10.8159C33.1374 11.2167 33.7321 11.4171 34.5079 11.4171C35.0639 11.4171 35.5423 11.2814 35.9431 11.0099C36.3439 10.7254 36.5896 10.428 36.6801 10.1177H39.1044C38.7165 11.3072 38.1218 12.1671 37.3201 12.6972C36.5185 13.2273 35.5488 13.4924 34.4109 13.4924C33.6222 13.4924 32.9111 13.3631 32.2775 13.1045C31.644 12.8459 31.1074 12.4838 30.6678 12.0184C30.2282 11.5529 29.8855 10.9969 29.6398 10.3504C29.4071 9.70395 29.2907 8.99281 29.2907 8.21702C29.2907 7.4671 29.4136 6.76889 29.6592 6.1224C29.9049 5.47591 30.254 4.91993 30.7066 4.45446C31.1591 3.97606 31.6957 3.6011 32.3163 3.32957C32.9499 3.05805 33.6481 2.92228 34.4109 2.92228C35.2643 2.92228 36.0078 3.09037 36.6413 3.42655C37.2749 3.74979 37.7921 4.1894 38.1929 4.74538C38.6066 5.30136 38.904 5.93492 39.085 6.64606C39.2661 7.35719 39.3307 8.10066 39.279 8.87644H32.0448Z" fill="#333333"/>
<path d="M43.4337 3.19381H45.4507V5.0363H43.4337V10.0013C43.4337 10.4668 43.5113 10.7771 43.6664 10.9323C43.8216 11.0874 44.1319 11.165 44.5974 11.165C44.9077 11.165 45.1921 11.1392 45.4507 11.0874V13.2402C45.218 13.279 44.9594 13.3049 44.6749 13.3178C44.3905 13.3307 44.1125 13.3372 43.841 13.3372C43.4143 13.3372 43.007 13.3049 42.6191 13.2402C42.2441 13.1885 41.908 13.0786 41.6106 12.9105C41.3261 12.7295 41.0999 12.4838 40.9318 12.1735C40.7637 11.8632 40.6796 11.4559 40.6796 10.9517V5.0363H39.0117V3.19381H40.6796V0.187637H43.4337V3.19381Z" fill="#333333"/>
<path d="M45.675 6.27756C45.7138 5.63107 45.8754 5.09448 46.1598 4.6678C46.4443 4.24112 46.8063 3.89848 47.2459 3.63989C47.6856 3.38129 48.1769 3.20027 48.7199 3.09684C49.263 2.98047 49.819 2.92228 50.3879 2.92228C50.8921 2.92228 51.4029 2.96107 51.9201 3.03865C52.4373 3.1033 52.9092 3.23906 53.3359 3.44594C53.7626 3.65282 54.1117 3.94373 54.3832 4.3187C54.6547 4.69366 54.7905 5.17853 54.7905 5.7733V10.9905C54.7905 11.443 54.8163 11.8761 54.868 12.2899C54.9198 12.7037 55.0103 13.014 55.1396 13.2208H52.3467C52.295 13.0657 52.2498 12.9105 52.211 12.7554C52.1851 12.5873 52.1657 12.4192 52.1528 12.2511C51.7132 12.7037 51.196 13.0269 50.6012 13.2208C50.0065 13.4019 49.3988 13.4924 48.7781 13.4924C48.2997 13.4924 47.8536 13.4277 47.4399 13.2984C47.0261 13.1821 46.6641 13.001 46.3538 12.7554C46.0435 12.5097 45.7978 12.1994 45.6168 11.8244C45.4487 11.4495 45.3647 11.0034 45.3647 10.4862C45.3647 9.91729 45.4616 9.45182 45.6556 9.08978C45.8495 8.71482 46.1081 8.41743 46.4314 8.19763C46.7546 7.97782 47.1166 7.8162 47.5175 7.71276C47.9312 7.59639 48.3514 7.50589 48.7781 7.44124C49.2048 7.37659 49.6121 7.32487 50 7.28608C50.3879 7.24729 50.7305 7.18911 51.0279 7.11153C51.3382 7.03395 51.5839 6.92405 51.7649 6.78182C51.9459 6.62666 52.0364 6.40686 52.0364 6.1224C52.0364 5.82502 51.9847 5.59228 51.8813 5.42419C51.7908 5.24318 51.6615 5.10741 51.4934 5.01691C51.3382 4.91347 51.1507 4.84882 50.9309 4.82296C50.7241 4.78417 50.4978 4.76478 50.2521 4.76478C49.722 4.76478 49.2953 4.88114 48.9721 5.11388C48.6618 5.34661 48.4807 5.73451 48.429 6.27756H45.675ZM52.0364 8.314C51.9201 8.41744 51.7714 8.50148 51.5904 8.56613C51.4223 8.61785 51.2348 8.6631 51.0279 8.70189C50.834 8.74068 50.6206 8.773 50.3879 8.79886C50.1681 8.82472 49.9547 8.85705 49.7479 8.89584C49.5281 8.93463 49.3212 8.98634 49.1272 9.05099C48.9333 9.11564 48.7587 9.20615 48.6036 9.32252C48.4613 9.42596 48.345 9.56818 48.2545 9.7492C48.164 9.91729 48.1187 10.1242 48.1187 10.3698C48.1187 10.6284 48.164 10.8418 48.2545 11.0099C48.345 11.165 48.4678 11.2943 48.623 11.3977C48.7781 11.4883 48.9591 11.5529 49.166 11.5917C49.3729 11.6305 49.5862 11.6499 49.806 11.6499C50.3491 11.6499 50.7693 11.5594 51.0667 11.3784C51.3641 11.1973 51.5839 10.984 51.7261 10.7383C51.8683 10.4797 51.9524 10.2211 51.9782 9.96254C52.017 9.70395 52.0364 9.49707 52.0364 9.34191V8.314Z" fill="#333333"/>
<path d="M58.0918 9.96254C58.0918 10.2599 58.15 10.5185 58.2663 10.7383C58.3956 10.9452 58.5573 11.1198 58.7512 11.262C58.9452 11.3913 59.165 11.4883 59.4106 11.5529C59.6692 11.6176 59.9343 11.6499 60.2058 11.6499C60.3998 11.6499 60.6002 11.6305 60.8071 11.5917C61.0269 11.54 61.2208 11.4689 61.3889 11.3784C61.5699 11.2749 61.7186 11.1456 61.835 10.9905C61.9513 10.8224 62.0095 10.6155 62.0095 10.3698C62.0095 10.163 61.9384 9.9884 61.7962 9.84617C61.6539 9.69102 61.4471 9.55525 61.1755 9.43889C60.917 9.32252 60.5937 9.21908 60.2058 9.12857C59.8179 9.02513 59.3783 8.9217 58.887 8.81826C58.4862 8.72775 58.0918 8.62431 57.7039 8.50794C57.3289 8.37864 56.9928 8.21702 56.6954 8.02308C56.398 7.8162 56.1588 7.56407 55.9778 7.26669C55.7968 6.95637 55.7063 6.58141 55.7063 6.1418C55.7063 5.50824 55.8291 4.98458 56.0748 4.57083C56.3334 4.14415 56.6695 3.81444 57.0833 3.5817C57.497 3.33604 57.9625 3.16795 58.4797 3.07744C58.9969 2.974 59.527 2.92228 60.0701 2.92228C60.6131 2.92228 61.1368 2.974 61.641 3.07744C62.1582 3.18088 62.6172 3.35543 63.018 3.6011C63.4189 3.84676 63.7486 4.17647 64.0072 4.59022C64.2787 4.99105 64.4403 5.50177 64.492 6.1224H61.8738C61.835 5.59228 61.6346 5.23671 61.2725 5.05569C60.9105 4.86175 60.4838 4.76478 59.9925 4.76478C59.8373 4.76478 59.6692 4.77771 59.4882 4.80357C59.3072 4.81649 59.1391 4.85528 58.984 4.91993C58.8417 4.98458 58.7189 5.08156 58.6155 5.21085C58.512 5.32722 58.4603 5.48884 58.4603 5.69572C58.4603 5.94138 58.5508 6.1418 58.7318 6.29695C58.9128 6.45211 59.1456 6.58141 59.43 6.68485C59.7274 6.77535 60.0636 6.8594 60.4386 6.93698C60.8135 7.01456 61.1949 7.0986 61.5828 7.18911C61.9837 7.27962 62.3716 7.38952 62.7465 7.51882C63.1344 7.64811 63.477 7.82267 63.7744 8.04247C64.0718 8.24935 64.311 8.51441 64.492 8.83765C64.6731 9.14797 64.7636 9.53586 64.7636 10.0013C64.7636 10.6607 64.6278 11.2167 64.3563 11.6693C64.0977 12.1089 63.755 12.4645 63.3284 12.736C62.9017 13.0075 62.4103 13.2014 61.8544 13.3178C61.3113 13.4342 60.7553 13.4924 60.1864 13.4924C59.6046 13.4924 59.0357 13.4342 58.4797 13.3178C57.9237 13.2014 57.4259 13.0075 56.9863 12.736C56.5596 12.4515 56.2041 12.083 55.9196 11.6305C55.6481 11.1779 55.4994 10.622 55.4735 9.96254H58.0918Z" fill="#333333"/>
<path d="M68.8967 3.19381H70.9138V5.0363H68.8967V10.0013C68.8967 10.4668 68.9743 10.7771 69.1295 10.9323C69.2846 11.0874 69.5949 11.165 70.0604 11.165C70.3707 11.165 70.6552 11.1392 70.9138 11.0874V13.2402C70.681 13.279 70.4225 13.3049 70.138 13.3178C69.8535 13.3307 69.5756 13.3372 69.304 13.3372C68.8773 13.3372 68.4701 13.3049 68.0822 13.2402C67.7072 13.1885 67.371 13.0786 67.0736 12.9105C66.7892 12.7295 66.5629 12.4838 66.3948 12.1735C66.2267 11.8632 66.1427 11.4559 66.1427 10.9517V5.0363H64.4748V3.19381H66.1427V0.187637H68.8967V3.19381Z" fill="#333333"/>
<path d="M73.6981 8.21702C73.6981 8.61785 73.7369 9.0122 73.8145 9.4001C73.8921 9.77506 74.0214 10.1177 74.2024 10.428C74.3963 10.7254 74.6485 10.9646 74.9588 11.1456C75.2691 11.3266 75.657 11.4171 76.1225 11.4171C76.5879 11.4171 76.9758 11.3266 77.2861 11.1456C77.6094 10.9646 77.8615 10.7254 78.0425 10.428C78.2365 10.1177 78.3722 9.77506 78.4498 9.4001C78.5274 9.0122 78.5662 8.61785 78.5662 8.21702C78.5662 7.8162 78.5274 7.42184 78.4498 7.03395C78.3722 6.64606 78.2365 6.30342 78.0425 6.00603C77.8615 5.70865 77.6094 5.46945 77.2861 5.28843C76.9758 5.09448 76.5879 4.99751 76.1225 4.99751C75.657 4.99751 75.2691 5.09448 74.9588 5.28843C74.6485 5.46945 74.3963 5.70865 74.2024 6.00603C74.0214 6.30342 73.8921 6.64606 73.8145 7.03395C73.7369 7.42184 73.6981 7.8162 73.6981 8.21702ZM70.9441 8.21702C70.9441 7.41538 71.0669 6.69131 71.3126 6.04482C71.5582 5.3854 71.9074 4.82942 72.3599 4.37688C72.8124 3.91141 73.3555 3.55584 73.989 3.31018C74.6226 3.05158 75.3337 2.92228 76.1225 2.92228C76.9112 2.92228 77.6223 3.05158 78.2559 3.31018C78.9024 3.55584 79.4519 3.91141 79.9044 4.37688C80.357 4.82942 80.7061 5.3854 80.9517 6.04482C81.1974 6.69131 81.3202 7.41538 81.3202 8.21702C81.3202 9.01867 81.1974 9.74274 80.9517 10.3892C80.7061 11.0357 80.357 11.5917 79.9044 12.0572C79.4519 12.5097 78.9024 12.8653 78.2559 13.1239C77.6223 13.3695 76.9112 13.4924 76.1225 13.4924C75.3337 13.4924 74.6226 13.3695 73.989 13.1239C73.3555 12.8653 72.8124 12.5097 72.3599 12.0572C71.9074 11.5917 71.5582 11.0357 71.3126 10.3892C71.0669 9.74274 70.9441 9.01867 70.9441 8.21702Z" fill="#333333"/>
<path d="M82.1412 3.19381H84.7594V5.05569H84.7982C84.9275 4.74538 85.1021 4.46093 85.3219 4.20233C85.5417 3.93081 85.7938 3.70453 86.0783 3.52352C86.3627 3.32957 86.6666 3.18088 86.9898 3.07744C87.326 2.974 87.6622 2.92228 87.9983 2.92228C88.2052 2.92228 88.4056 2.95461 88.5996 3.01926V5.57935C88.4703 5.55349 88.3151 5.5341 88.1341 5.52117C87.9531 5.49531 87.7785 5.48238 87.6105 5.48238C87.1062 5.48238 86.6795 5.56642 86.3304 5.73451C85.9813 5.90259 85.6968 6.13533 85.477 6.43272C85.2702 6.71717 85.1215 7.05981 85.031 7.46063C84.9405 7.84852 84.8952 8.26228 84.8952 8.70189V13.2208H82.1412V3.19381Z" fill="#333333"/>
<path d="M95.118 7.13092C94.9887 6.43271 94.756 5.9026 94.4198 5.54056C94.0965 5.17853 93.5987 4.99751 92.9264 4.99751C92.4868 4.99751 92.1183 5.07509 91.8209 5.23025C91.5365 5.37247 91.3037 5.55349 91.1227 5.7733C90.9546 5.9931 90.8318 6.22584 90.7542 6.47151C90.6896 6.71717 90.6508 6.93698 90.6378 7.13092H95.118ZM90.6378 8.87644C90.6766 9.75567 90.9029 10.4022 91.3167 10.8159C91.7304 11.2167 92.3252 11.4171 93.101 11.4171C93.6569 11.4171 94.1353 11.2814 94.5362 11.0099C94.937 10.7254 95.1826 10.428 95.2732 10.1177H97.6975C97.3096 11.3072 96.7148 12.1671 95.9132 12.6972C95.1115 13.2273 94.1418 13.4924 93.004 13.4924C92.2153 13.4924 91.5041 13.3631 90.8706 13.1045C90.237 12.8459 89.7004 12.4838 89.2608 12.0184C88.8212 11.5529 88.4786 10.9969 88.2329 10.3504C88.0002 9.70395 87.8838 8.99281 87.8838 8.21702C87.8838 7.4671 88.0066 6.76889 88.2523 6.1224C88.498 5.47591 88.8471 4.91993 89.2996 4.45446C89.7521 3.97606 90.2887 3.6011 90.9094 3.32957C91.5429 3.05805 92.2411 2.92228 93.004 2.92228C93.8573 2.92228 94.6008 3.09037 95.2344 3.42655C95.8679 3.74979 96.3851 4.1894 96.7859 4.74538C97.1997 5.30136 97.4971 5.93492 97.6781 6.64606C97.8591 7.35719 97.9238 8.10066 97.872 8.87644H90.6378Z" fill="#333333"/>
<path d="M5.09109 3.03865V13.2208H1.52068C0.968396 13.2208 0.52068 12.7731 0.52068 12.2208V9.57469C0.52068 8.68745 1.59026 8.23965 2.22239 8.86223L4.38716 10.9943C4.77729 11.3786 5.40391 11.3776 5.79283 10.9921L7.92862 8.87514C8.55985 8.24948 9.63258 8.69661 9.63258 9.58538V12.2208C9.63258 12.7731 9.18487 13.2208 8.63258 13.2208H5.09109V3.03865H7.74795C8.64166 3.03865 9.08655 4.1216 8.45092 4.74986L5.79407 7.37594C5.40451 7.76099 4.77768 7.76099 4.38812 7.37594L1.73127 4.74986C1.09564 4.1216 1.54053 3.03865 2.43424 3.03865H5.09109Z" fill="#E89313"/>
</svg>
