<svg width="19" height="21" viewBox="0 0 19 21" fill="none" xmlns="http://www.w3.org/2000/svg">
<path d="M9.49998 0V21H2.07386C0.969294 21 0.0738636 20.1046 0.0738636 19V13.331C0.0738636 11.5565 2.21302 10.6609 3.47728 11.9061L8.09212 16.4512C8.8724 17.2197 10.1256 17.2177 10.9035 16.4468L15.4585 11.9319C16.721 10.6806 18.8665 11.5748 18.8665 13.3524V19C18.8665 20.1046 17.971 21 16.8665 21H9.49998V0H15.1315C16.9189 0 17.8087 2.16591 16.5375 3.42243L10.906 8.98871C10.1268 9.75881 8.87317 9.75881 8.09405 8.98871L2.46253 3.42243C1.19129 2.16591 2.08105 0 3.86849 0H9.49998Z" fill="#E89313"/>
</svg>
